<mxfile host="app.diagrams.net" modified="2023-12-10T16:41:47.336Z" agent="Mozilla/5.0 (Windows NT 10.0; Win64; x64) AppleWebKit/537.36 (KHTML, like Gecko) Chrome/120.0.0.0 Safari/537.36" etag="QKtYjmqxPLZGAj_rsdji" version="22.1.7" type="github">
  <diagram id="C5RBs43oDa-KdzZeNtuy" name="Page-1">
    <mxGraphModel dx="1120" dy="1637" grid="1" gridSize="10" guides="1" tooltips="1" connect="1" arrows="1" fold="1" page="1" pageScale="1" pageWidth="827" pageHeight="1169" math="0" shadow="0">
      <root>
        <mxCell id="WIyWlLk6GJQsqaUBKTNV-0" />
        <mxCell id="WIyWlLk6GJQsqaUBKTNV-1" parent="WIyWlLk6GJQsqaUBKTNV-0" />
        <mxCell id="jM-4y93novg42ghQSsh3-0" value="start" style="ellipse;whiteSpace=wrap;html=1;" vertex="1" parent="WIyWlLk6GJQsqaUBKTNV-1">
          <mxGeometry x="150" y="-50" width="120" height="80" as="geometry" />
        </mxCell>
        <mxCell id="jM-4y93novg42ghQSsh3-1" value="" style="endArrow=classic;html=1;rounded=0;exitX=0.5;exitY=1;exitDx=0;exitDy=0;" edge="1" parent="WIyWlLk6GJQsqaUBKTNV-1" source="jM-4y93novg42ghQSsh3-0">
          <mxGeometry width="50" height="50" relative="1" as="geometry">
            <mxPoint x="226" y="60" as="sourcePoint" />
            <mxPoint x="210" y="80" as="targetPoint" />
            <Array as="points" />
          </mxGeometry>
        </mxCell>
        <mxCell id="jM-4y93novg42ghQSsh3-2" value="Input: Enter the number of elements,&amp;nbsp; n" style="shape=parallelogram;perimeter=parallelogramPerimeter;whiteSpace=wrap;html=1;fixedSize=1;" vertex="1" parent="WIyWlLk6GJQsqaUBKTNV-1">
          <mxGeometry x="125" y="80" width="170" height="60" as="geometry" />
        </mxCell>
        <mxCell id="jM-4y93novg42ghQSsh3-7" value="" style="edgeStyle=orthogonalEdgeStyle;rounded=0;orthogonalLoop=1;jettySize=auto;html=1;" edge="1" parent="WIyWlLk6GJQsqaUBKTNV-1" source="jM-4y93novg42ghQSsh3-3">
          <mxGeometry relative="1" as="geometry">
            <mxPoint x="210" y="280" as="targetPoint" />
          </mxGeometry>
        </mxCell>
        <mxCell id="jM-4y93novg42ghQSsh3-3" value="Declare an array with size n" style="rounded=0;whiteSpace=wrap;html=1;" vertex="1" parent="WIyWlLk6GJQsqaUBKTNV-1">
          <mxGeometry x="148" y="189" width="120" height="60" as="geometry" />
        </mxCell>
        <mxCell id="jM-4y93novg42ghQSsh3-4" value="" style="endArrow=classic;html=1;rounded=0;exitX=0.465;exitY=1.017;exitDx=0;exitDy=0;exitPerimeter=0;entryX=0.442;entryY=0;entryDx=0;entryDy=0;entryPerimeter=0;" edge="1" parent="WIyWlLk6GJQsqaUBKTNV-1" source="jM-4y93novg42ghQSsh3-2" target="jM-4y93novg42ghQSsh3-3">
          <mxGeometry width="50" height="50" relative="1" as="geometry">
            <mxPoint x="180" y="210" as="sourcePoint" />
            <mxPoint x="230" y="160" as="targetPoint" />
            <Array as="points" />
          </mxGeometry>
        </mxCell>
        <mxCell id="jM-4y93novg42ghQSsh3-8" value="input elements , which are stored in n" style="shape=parallelogram;perimeter=parallelogramPerimeter;whiteSpace=wrap;html=1;fixedSize=1;" vertex="1" parent="WIyWlLk6GJQsqaUBKTNV-1">
          <mxGeometry x="150" y="280" width="170" height="60" as="geometry" />
        </mxCell>
        <mxCell id="jM-4y93novg42ghQSsh3-10" value="" style="endArrow=classic;html=1;rounded=0;exitX=0.442;exitY=1;exitDx=0;exitDy=0;exitPerimeter=0;" edge="1" parent="WIyWlLk6GJQsqaUBKTNV-1" source="jM-4y93novg42ghQSsh3-8">
          <mxGeometry width="50" height="50" relative="1" as="geometry">
            <mxPoint x="212.5" y="340" as="sourcePoint" />
            <mxPoint x="207.5" y="370" as="targetPoint" />
            <Array as="points">
              <mxPoint x="207.5" y="350" />
            </Array>
          </mxGeometry>
        </mxCell>
        <mxCell id="jM-4y93novg42ghQSsh3-11" value="i &amp;lt; n&lt;br&gt;?" style="rhombus;whiteSpace=wrap;html=1;" vertex="1" parent="WIyWlLk6GJQsqaUBKTNV-1">
          <mxGeometry x="168" y="370" width="80" height="80" as="geometry" />
        </mxCell>
        <mxCell id="jM-4y93novg42ghQSsh3-13" value="inpu element 1,2 ,3 ..." style="shape=parallelogram;perimeter=parallelogramPerimeter;whiteSpace=wrap;html=1;fixedSize=1;" vertex="1" parent="WIyWlLk6GJQsqaUBKTNV-1">
          <mxGeometry x="135" y="480" width="160" height="60" as="geometry" />
        </mxCell>
        <mxCell id="jM-4y93novg42ghQSsh3-14" value="Call the findMinMax function" style="rounded=0;whiteSpace=wrap;html=1;" vertex="1" parent="WIyWlLk6GJQsqaUBKTNV-1">
          <mxGeometry x="155.5" y="585" width="145" height="60" as="geometry" />
        </mxCell>
        <mxCell id="jM-4y93novg42ghQSsh3-15" value="Output&quot;: The smallest&lt;br&gt;&amp;nbsp;element is:&amp;nbsp;" style="shape=parallelogram;perimeter=parallelogramPerimeter;whiteSpace=wrap;html=1;fixedSize=1;" vertex="1" parent="WIyWlLk6GJQsqaUBKTNV-1">
          <mxGeometry x="155" y="680" width="175" height="60" as="geometry" />
        </mxCell>
        <mxCell id="jM-4y93novg42ghQSsh3-16" value="Output&quot;: The largest&lt;br&gt;&amp;nbsp;element is:&amp;nbsp;" style="shape=parallelogram;perimeter=parallelogramPerimeter;whiteSpace=wrap;html=1;fixedSize=1;" vertex="1" parent="WIyWlLk6GJQsqaUBKTNV-1">
          <mxGeometry x="140" y="780" width="175" height="60" as="geometry" />
        </mxCell>
        <mxCell id="jM-4y93novg42ghQSsh3-17" value="End" style="ellipse;whiteSpace=wrap;html=1;" vertex="1" parent="WIyWlLk6GJQsqaUBKTNV-1">
          <mxGeometry x="168" y="890" width="120" height="80" as="geometry" />
        </mxCell>
        <mxCell id="jM-4y93novg42ghQSsh3-20" value="" style="endArrow=classic;html=1;rounded=0;entryX=0.442;entryY=0;entryDx=0;entryDy=0;entryPerimeter=0;" edge="1" parent="WIyWlLk6GJQsqaUBKTNV-1">
          <mxGeometry width="50" height="50" relative="1" as="geometry">
            <mxPoint x="208" y="450" as="sourcePoint" />
            <mxPoint x="207.5" y="480" as="targetPoint" />
            <Array as="points" />
          </mxGeometry>
        </mxCell>
        <mxCell id="jM-4y93novg42ghQSsh3-23" value="" style="endArrow=classic;html=1;rounded=0;" edge="1" parent="WIyWlLk6GJQsqaUBKTNV-1">
          <mxGeometry width="50" height="50" relative="1" as="geometry">
            <mxPoint x="209.5" y="540" as="sourcePoint" />
            <mxPoint x="209.5" y="590" as="targetPoint" />
            <Array as="points" />
          </mxGeometry>
        </mxCell>
        <mxCell id="jM-4y93novg42ghQSsh3-28" value="" style="endArrow=classic;html=1;rounded=0;" edge="1" parent="WIyWlLk6GJQsqaUBKTNV-1">
          <mxGeometry width="50" height="50" relative="1" as="geometry">
            <mxPoint x="219.5" y="730" as="sourcePoint" />
            <mxPoint x="219.5" y="780" as="targetPoint" />
            <Array as="points" />
          </mxGeometry>
        </mxCell>
        <mxCell id="jM-4y93novg42ghQSsh3-29" value="" style="endArrow=classic;html=1;rounded=0;" edge="1" parent="WIyWlLk6GJQsqaUBKTNV-1">
          <mxGeometry width="50" height="50" relative="1" as="geometry">
            <mxPoint x="227" y="640" as="sourcePoint" />
            <mxPoint x="227" y="680" as="targetPoint" />
            <Array as="points" />
          </mxGeometry>
        </mxCell>
        <mxCell id="jM-4y93novg42ghQSsh3-32" value="" style="endArrow=classic;html=1;rounded=0;" edge="1" parent="WIyWlLk6GJQsqaUBKTNV-1">
          <mxGeometry width="50" height="50" relative="1" as="geometry">
            <mxPoint x="214.5" y="840" as="sourcePoint" />
            <mxPoint x="214.5" y="890" as="targetPoint" />
            <Array as="points" />
          </mxGeometry>
        </mxCell>
      </root>
    </mxGraphModel>
  </diagram>
</mxfile>
